<mxfile host="app.diagrams.net" modified="2024-02-16T03:14:35.728Z" agent="Mozilla/5.0 (Windows NT 10.0; Win64; x64) AppleWebKit/537.36 (KHTML, like Gecko) Chrome/121.0.0.0 Safari/537.36 Edg/121.0.0.0" version="23.1.5" etag="eFJyLIq3gaoRSb7HMzfC" type="github">
  <diagram name="第 1 页" id="AT8IDn2XfAp6VDb-ZEGE">
    <mxGraphModel>
      <root>
        <mxCell id="0" />
        <mxCell id="1" parent="0" />
      </root>
    </mxGraphModel>
  </diagram>
</mxfile>
